HIERARCHY
ROOT Hips
{
	OFFSET 0.000000 0.000000 0.000000
	CHANNELS 6 Xposition Yposition Zposition Zrotation Yrotation Xrotation 
	JOINT LHipJoint
	{
		OFFSET 0.000000 0.000000 0.000000
		CHANNELS 3 Zrotation Yrotation Xrotation
		JOINT LeftUpLeg
		{
			OFFSET 1.363060 -1.794630 0.839290
			CHANNELS 3 Zrotation Yrotation Xrotation
			JOINT LeftLeg
			{
				OFFSET 2.448110 -6.726130 0.000000
				CHANNELS 3 Zrotation Yrotation Xrotation
				JOINT LeftFoot
				{
					OFFSET 2.562200 -7.039590 0.000000
					CHANNELS 3 Zrotation Yrotation Xrotation
					JOINT LeftToeBase
					{
						OFFSET 0.157640 -0.433110 2.322550
						CHANNELS 3 Zrotation Yrotation Xrotation
						End Site
						{
							OFFSET 0.000000 0.000000 0.000000
						}
					}
				}
			}
		}
	}
	JOINT RHipJoint
	{
		OFFSET 0.000000 0.000000 0.000000
		CHANNELS 3 Zrotation Yrotation Xrotation
		JOINT RightUpLeg
		{
			OFFSET -1.305520 -1.794630 0.839290
			CHANNELS 3 Zrotation Yrotation Xrotation
			JOINT RightLeg
			{
				OFFSET -2.542530 -6.985550 0.000000
				CHANNELS 3 Zrotation Yrotation Xrotation
				JOINT RightFoot
				{
					OFFSET -2.568260 -7.056230 0.000000
					CHANNELS 3 Zrotation Yrotation Xrotation
					JOINT RightToeBase
					{
						OFFSET -0.164730 -0.452590 2.363150
						CHANNELS 3 Zrotation Yrotation Xrotation
						End Site
						{
							OFFSET 0.000000 0.000000 0.000000
						}
					}
				}
			}
		}
	}
	JOINT LowerBack
	{
		OFFSET 0.000000 0.000000 0.000000
		CHANNELS 3 Zrotation Yrotation Xrotation
		JOINT Spine
		{
			OFFSET 0.028270 2.035590 -0.193380
			CHANNELS 3 Zrotation Yrotation Xrotation
			JOINT Spine1
			{
				OFFSET 0.056720 2.048850 -0.042750
				CHANNELS 3 Zrotation Yrotation Xrotation
				JOINT Neck
				{
					OFFSET 0.000000 0.000000 0.000000
					CHANNELS 3 Zrotation Yrotation Xrotation
					JOINT Neck1
					{
						OFFSET -0.054170 1.746240 0.172020
						CHANNELS 3 Zrotation Yrotation Xrotation
						JOINT Head
						{
							OFFSET 0.104070 1.761360 -0.123970
							CHANNELS 3 Zrotation Yrotation Xrotation
							End Site
							{
								OFFSET 0.000000 0.000000 0.000000
							}
						}
					}
				}
				JOINT LeftShoulder
				{
					OFFSET 0.000000 0.000000 0.000000
					CHANNELS 3 Zrotation Yrotation Xrotation
					JOINT LeftArm
					{
						OFFSET 3.362410 1.200890 -0.311210
						CHANNELS 3 Zrotation Yrotation Xrotation
						JOINT LeftForeArm
						{
							OFFSET 4.983000 -0.000000 -0.000000
							CHANNELS 3 Zrotation Yrotation Xrotation
							JOINT LeftHand
							{
								OFFSET 3.483560 -0.000000 -0.000000
								CHANNELS 3 Zrotation Yrotation Xrotation
								JOINT LeftFingerBase
								{
									OFFSET 0.000000 0.000000 0.000000
									CHANNELS 3 Zrotation Yrotation Xrotation
									JOINT LeftHandIndex1
									{
										OFFSET 0.715260 -0.000000 -0.000000
										CHANNELS 3 Zrotation Yrotation Xrotation
										End Site
										{
											OFFSET 0.000000 0.000000 0.000000
										}
									}
								}
								JOINT LThumb
								{
									OFFSET 0.000000 0.000000 0.000000
									CHANNELS 3 Zrotation Yrotation Xrotation
									End Site
									{
										OFFSET 0.000000 0.000000 0.000000
									}
								}
							}
						}
					}
				}
				JOINT RightShoulder
				{
					OFFSET 0.000000 0.000000 0.000000
					CHANNELS 3 Zrotation Yrotation Xrotation
					JOINT RightArm
					{
						OFFSET -3.136600 1.374050 -0.404650
						CHANNELS 3 Zrotation Yrotation Xrotation
						JOINT RightForeArm
						{
							OFFSET -5.241900 -0.000000 -0.000000
							CHANNELS 3 Zrotation Yrotation Xrotation
							JOINT RightHand
							{
								OFFSET -3.444170 -0.000000 -0.000000
								CHANNELS 3 Zrotation Yrotation Xrotation
								JOINT RightFingerBase
								{
									OFFSET 0.000000 0.000000 0.000000
									CHANNELS 3 Zrotation Yrotation Xrotation
									JOINT RightHandIndex1
									{
										OFFSET -0.622530 -0.000000 -0.000000
										CHANNELS 3 Zrotation Yrotation Xrotation
										End Site
										{
											OFFSET 0.000000 0.000000 0.000000
										}
									}
								}
								JOINT RThumb
								{
									OFFSET 0.000000 0.000000 0.000000
									CHANNELS 3 Zrotation Yrotation Xrotation
									End Site
									{
										OFFSET 0.000000 0.000000 0.000000
									}
								}
							}
						}
					}
				}
			}
		}
	}
}
MOTION
Frames: 4
Frame Time: 0.008333
12.954472 16.294187 -10.744164 0.258737 -0.310528 -0.994610 -11.483160 -8.447719 -8.596179 3.128432 1.292862 -31.093434 -3.843763 0.054525 -3.974296 2.321280 20.018941 50.182116 0.000000 0.000000 0.000000 8.332109 7.956316 -6.773455 0.580752 -4.170575 -31.593007 4.005496 0.394906 -3.097753 -2.917779 -19.766412 50.882142 0.000000 0.000000 0.000000 -2.814047 0.015516 24.140168 0.493846 -0.090847 -1.999498 4.090274 -0.060271 -0.927744 -8.471998 -8.188561 -14.777255 3.918235 -10.656867 7.195632 2.365500 -5.046700 2.349800 5.045377 -19.952953 2.364450 8.185558 -34.583330 11.017918 20.938086 -29.059434 -13.201713 -4.018850 5.327723 17.658178 37.909341 -16.299386 -17.739900 -7.125000 0.000000 0.000000 9.362000 3.967100 -8.812500 -2.745039 19.527812 -1.061458 -6.974800 36.775544 18.006544 -28.834570 36.222862 -15.823049 6.415207 7.388600 6.416328 -20.535625 -21.112643 13.277700 7.125000 0.000000 0.000000 5.353900 -61.244200 -2.121500 
12.954729 16.290585 -10.734900 0.448193 -0.281044 -0.987882 -11.547226 -8.420230 -8.581691 2.973542 1.353549 -31.111405 -3.872016 0.047952 -3.945200 2.312234 19.986366 50.148838 0.000000 0.000000 0.000000 8.246813 7.927634 -6.783052 0.440310 -4.275486 -31.572524 3.963079 0.394120 -3.104405 -2.945015 -19.809862 50.966271 0.000000 0.000000 0.000000 -2.986882 0.022156 24.055427 0.477451 -0.135821 -1.973265 4.145827 -0.051953 -0.770674 -8.570466 -8.157172 -14.839442 3.930327 -10.612478 7.282815 2.417700 -5.027200 2.410700 5.004264 -19.896691 2.363079 8.203046 -34.544869 10.883058 20.840631 -29.014149 -13.163777 -3.988758 5.375267 17.921396 37.901315 -16.357874 -17.808700 -7.125000 0.000000 0.000000 9.341000 3.859200 -8.811100 -2.750706 19.477895 -0.958941 -7.174285 36.676401 17.757721 -28.715362 36.142674 -15.767764 6.373361 7.390273 6.340174 -20.431912 -20.921208 13.126000 7.125000 0.000000 0.000000 5.414000 -61.013900 -2.115800 
12.950355 16.287111 -10.733356 0.483118 -0.263602 -0.974362 -11.506775 -8.434069 -8.607940 2.935282 1.434284 -31.161385 -3.869954 0.047388 -3.946756 2.313180 19.986813 50.149413 0.000000 0.000000 0.000000 8.203090 7.928844 -6.802720 0.458536 -4.364426 -31.620995 3.957837 0.393372 -3.104558 -2.948824 -19.816268 50.978259 0.000000 0.000000 0.000000 -2.969303 0.038619 24.009426 0.460149 -0.132055 -1.950250 4.099298 -0.039895 -0.634643 -8.552766 -8.142536 -14.954748 3.901247 -10.579499 7.409138 2.384200 -5.021500 2.538800 5.002059 -19.867191 2.351498 8.258246 -34.519980 10.711286 20.720606 -28.971681 -13.137239 -3.999322 5.527577 18.134461 38.240611 -16.705064 -18.419800 -7.125000 0.000000 0.000000 9.489900 3.156800 -9.080200 -2.754315 19.458907 -0.900472 -7.365579 36.563914 17.493720 -28.478175 35.988821 -15.629225 6.371802 7.404345 6.427788 -20.323869 -20.834293 13.034200 7.125000 0.000000 0.000000 5.527000 -60.922900 -2.148100 
12.943922 16.284409 -10.734257 0.559970 -0.249028 -0.983764 -11.488355 -8.444157 -8.629624 2.884723 1.490253 -31.195649 -3.872798 0.045319 -3.944201 2.311622 19.980813 50.142344 0.000000 0.000000 0.000000 8.161664 7.931646 -6.825996 0.454592 -4.441545 -31.659749 3.949561 0.391506 -3.107060 -2.954526 -19.826832 50.994971 0.000000 0.000000 0.000000 -3.001839 0.067665 24.011984 0.433328 -0.127614 -1.920078 4.049811 -0.022319 -0.443560 -8.496801 -8.121661 -15.159012 3.900685 -10.542893 7.508884 2.363000 -5.008100 2.654900 5.017703 -19.805125 2.382398 8.432253 -34.496960 10.453393 20.634083 -28.938826 -13.109123 -4.031071 5.616028 18.198456 38.469586 -16.902467 -18.800800 -7.125000 0.000000 0.000000 9.608200 2.743100 -9.270500 -2.779475 19.415508 -0.809154 -7.690336 36.447564 17.107080 -28.256809 35.856932 -15.516473 6.383067 7.458561 6.411118 -20.278132 -20.822602 13.031200 7.125000 0.000000 0.000000 5.589600 -60.957500 -2.177200 
